<?xml version="1.0"?>
<svg xmlns="http://www.w3.org/2000/svg" version="1.2" baseProfile="tiny" width="500" height="121" viewBox="0 0 500 121" stroke-linecap="butt" stroke-linejoin="round">
<style>
  path {shape-rendering: crispEdges;}
</style>
<g id="layer23">
<path d="M 1 90.64 1 1 5.98 1 5.98 90.64 1 90.64 Z" fill="#ddd"/>
<path d="M 5.98 90.64 5.98 71.73 10.96 71.73 10.96 90.64 5.98 90.64 Z" fill="#ddd"/>
<path d="M 10.96 90.64 10.96 46.52 15.94 46.52 15.94 90.64 10.96 90.64 Z" fill="#ddd"/>
<path d="M 15.94 90.64 15.94 50.02 20.92 50.02 20.92 90.64 15.94 90.64 Z" fill="#ddd"/>
<path d="M 20.92 90.64 20.92 44.42 25.9 44.42 25.9 90.64 20.92 90.64 Z" fill="#ddd"/>
<path d="M 25.9 90.64 25.9 33.21 30.88 33.21 30.88 90.64 25.9 90.64 Z" fill="#ddd"/>
<path d="M 30.88 90.64 30.88 32.51 35.86 32.51 35.86 90.64 30.88 90.64 Z" fill="#ddd"/>
<path d="M 35.86 90.64 35.86 31.11 40.84 31.11 40.84 90.64 35.86 90.64 Z" fill="#ddd"/>
<path d="M 40.84 90.64 40.84 20.61 45.82 20.61 45.82 90.64 40.84 90.64 Z" fill="#ddd"/>
<path d="M 45.82 90.64 45.82 15.01 50.8 15.01 50.8 90.64 45.82 90.64 Z" fill="#ddd"/>
<path d="M 50.8 90.64 50.8 4.5 55.78 4.5 55.78 90.64 50.8 90.64 Z" fill="#ddd"/>
<path d="M 55.78 90.64 55.78 12.91 60.76 12.91 60.76 90.64 55.78 90.64 Z" fill="#ddd"/>
<path d="M 60.76 90.64 60.76 5.2 65.74 5.2 65.74 90.64 60.76 90.64 Z" fill="#ddd"/>
<path d="M 65.74 90.64 65.74 19.91 70.72 19.91 70.72 90.64 65.74 90.64 Z" fill="#ddd"/>
<path d="M 70.72 90.64 70.72 12.21 75.7 12.21 75.7 90.64 70.72 90.64 Z" fill="#ddd"/>
<path d="M 75.7 90.64 75.7 36.02 80.68 36.02 80.68 90.64 75.7 90.64 Z" fill="#ddd"/>
<path d="M 80.68 90.64 80.68 35.32 85.66 35.32 85.66 90.64 80.68 90.64 Z" fill="#ddd"/>
<path d="M 85.66 90.64 85.66 29.71 90.64 29.71 90.64 90.64 85.66 90.64 Z" fill="#ddd"/>
<path d="M 90.64 90.64 90.64 42.32 95.62 42.32 95.62 90.64 90.64 90.64 Z" fill="#ddd"/>
<path d="M 95.62 90.64 95.62 37.42 100.6 37.42 100.6 90.64 95.62 90.64 Z" fill="#ddd"/>
<path d="M 100.6 90.64 100.6 59.13 105.58 59.13 105.58 90.64 100.6 90.64 Z" fill="#ddd"/>
<path d="M 105.58 90.64 105.58 45.12 110.56 45.12 110.56 90.64 105.58 90.64 Z" fill="#ddd"/>
<path d="M 110.56 90.64 110.56 44.42 115.54 44.42 115.54 90.64 110.56 90.64 Z" fill="#ddd"/>
<path d="M 115.54 90.64 115.54 48.62 120.52 48.62 120.52 90.64 115.54 90.64 Z" fill="#ddd"/>
<path d="M 120.52 90.64 120.52 51.42 125.5 51.42 125.5 90.64 120.52 90.64 Z" fill="#ddd"/>
<path d="M 125.5 90.64 125.5 55.62 130.48 55.62 130.48 90.64 125.5 90.64 Z" fill="#ddd"/>
<path d="M 130.48 90.64 130.48 54.22 135.46 54.22 135.46 90.64 130.48 90.64 Z" fill="#ddd"/>
<path d="M 135.46 90.64 135.46 58.43 140.44 58.43 140.44 90.64 135.46 90.64 Z" fill="#ddd"/>
<path d="M 140.44 90.64 140.44 54.22 145.42 54.22 145.42 90.64 140.44 90.64 Z" fill="#ddd"/>
<path d="M 145.42 90.64 145.42 57.73 150.4 57.73 150.4 90.64 145.42 90.64 Z" fill="#ddd"/>
<path d="M 150.4 90.64 150.4 51.42 155.38 51.42 155.38 90.64 150.4 90.64 Z" fill="#ddd"/>
<path d="M 155.38 90.64 155.38 64.03 160.36 64.03 160.36 90.64 155.38 90.64 Z" fill="#ddd"/>
<path d="M 160.36 90.64 160.36 53.52 165.34 53.52 165.34 90.64 160.36 90.64 Z" fill="#ddd"/>
<path d="M 165.34 90.64 165.34 58.43 170.32 58.43 170.32 90.64 165.34 90.64 Z" fill="#ddd"/>
<path d="M 170.32 90.64 170.32 58.43 175.3 58.43 175.3 90.64 170.32 90.64 Z" fill="#ddd"/>
<path d="M 175.3 90.64 175.3 59.83 180.28 59.83 180.28 90.64 175.3 90.64 Z" fill="#ddd"/>
<path d="M 180.28 90.64 180.28 64.73 185.26 64.73 185.26 90.64 180.28 90.64 Z" fill="#ddd"/>
<path d="M 185.26 90.64 185.26 68.23 190.24 68.23 190.24 90.64 185.26 90.64 Z" fill="#ddd"/>
<path d="M 190.24 90.64 190.24 68.93 195.22 68.93 195.22 90.64 190.24 90.64 Z" fill="#ddd"/>
<path d="M 195.22 90.64 195.22 68.93 200.2 68.93 200.2 90.64 195.22 90.64 Z" fill="#ddd"/>
<path d="M 200.2 90.64 200.2 68.93 205.18 68.93 205.18 90.64 200.2 90.64 Z" fill="#ddd"/>
<path d="M 205.18 90.64 205.18 64.03 210.16 64.03 210.16 90.64 205.18 90.64 Z" fill="#ddd"/>
<path d="M 210.16 90.64 210.16 64.73 215.14 64.73 215.14 90.64 210.16 90.64 Z" fill="#ddd"/>
<path d="M 215.14 90.64 215.14 68.23 220.12 68.23 220.12 90.64 215.14 90.64 Z" fill="#ddd"/>
<path d="M 220.12 90.64 220.12 71.03 225.1 71.03 225.1 90.64 220.12 90.64 Z" fill="#ddd"/>
<path d="M 225.1 90.64 225.1 73.83 230.08 73.83 230.08 90.64 225.1 90.64 Z" fill="#ddd"/>
<path d="M 230.08 90.64 230.08 71.73 235.06 71.73 235.06 90.64 230.08 90.64 Z" fill="#ddd"/>
<path d="M 235.06 90.64 235.06 73.83 240.04 73.83 240.04 90.64 235.06 90.64 Z" fill="#ddd"/>
<path d="M 240.04 90.64 240.04 73.83 245.02 73.83 245.02 90.64 240.04 90.64 Z" fill="#ddd"/>
<path d="M 245.02 90.64 245.02 78.73 250 78.73 250 90.64 245.02 90.64 Z" fill="#ddd"/>
<path d="M 250 90.64 250 64.73 254.98 64.73 254.98 90.64 250 90.64 Z" fill="#ddd"/>
<path d="M 254.98 90.64 254.98 80.14 259.96 80.14 259.96 90.64 254.98 90.64 Z" fill="#ddd"/>
<path d="M 259.96 90.64 259.96 80.84 264.94 80.84 264.94 90.64 259.96 90.64 Z" fill="#ddd"/>
<path d="M 264.94 90.64 264.94 76.63 269.92 76.63 269.92 90.64 264.94 90.64 Z" fill="#ddd"/>
<path d="M 269.92 90.64 269.92 76.63 274.9 76.63 274.9 90.64 269.92 90.64 Z" fill="#ddd"/>
<path d="M 274.9 90.64 274.9 82.94 279.88 82.94 279.88 90.64 274.9 90.64 Z" fill="#ddd"/>
<path d="M 279.88 90.64 279.88 82.24 284.86 82.24 284.86 90.64 279.88 90.64 Z" fill="#ddd"/>
<path d="M 284.86 90.64 284.86 82.24 289.84 82.24 289.84 90.64 284.86 90.64 Z" fill="#ddd"/>
<path d="M 289.84 90.64 289.84 83.64 294.82 83.64 294.82 90.64 289.84 90.64 Z" fill="#ddd"/>
<path d="M 294.82 90.64 294.82 85.04 299.8 85.04 299.8 90.64 294.82 90.64 Z" fill="#ddd"/>
<path d="M 299.8 90.64 299.8 87.84 304.78 87.84 304.78 90.64 299.8 90.64 Z" fill="#ddd"/>
<path d="M 304.78 90.64 304.78 85.74 309.76 85.74 309.76 90.64 304.78 90.64 Z" fill="#ddd"/>
<path d="M 309.76 90.64 309.76 86.44 314.74 86.44 314.74 90.64 309.76 90.64 Z" fill="#ddd"/>
<path d="M 314.74 90.64 314.74 85.04 319.72 85.04 319.72 90.64 314.74 90.64 Z" fill="#ddd"/>
<path d="M 319.72 90.64 319.72 87.84 324.7 87.84 324.7 90.64 319.72 90.64 Z" fill="#ddd"/>
<path d="M 324.7 90.64 324.7 86.44 329.68 86.44 329.68 90.64 324.7 90.64 Z" fill="#ddd"/>
<path d="M 329.68 90.64 329.68 87.14 334.66 87.14 334.66 90.64 329.68 90.64 Z" fill="#ddd"/>
<path d="M 334.66 90.64 334.66 87.84 339.64 87.84 339.64 90.64 334.66 90.64 Z" fill="#ddd"/>
<path d="M 339.64 90.64 339.64 88.54 344.62 88.54 344.62 90.64 339.64 90.64 Z" fill="#ddd"/>
<path d="M 344.62 90.64 344.62 87.84 349.6 87.84 349.6 90.64 344.62 90.64 Z" fill="#ddd"/>
<path d="M 349.6 90.64 349.6 87.84 354.58 87.84 354.58 90.64 349.6 90.64 Z" fill="#ddd"/>
<path d="M 359.56 90.64 359.56 89.24 364.54 89.24 364.54 90.64 359.56 90.64 Z" fill="#ddd"/>
<path d="M 364.54 90.64 364.54 89.24 369.52 89.24 369.52 90.64 364.54 90.64 Z" fill="#ddd"/>
<path d="M 369.52 90.64 369.52 89.24 374.5 89.24 374.5 90.64 369.52 90.64 Z" fill="#ddd"/>
<path d="M 374.5 90.64 374.5 88.54 379.48 88.54 379.48 90.64 374.5 90.64 Z" fill="#ddd"/>
<path d="M 379.48 90.64 379.48 89.24 384.46 89.24 384.46 90.64 379.48 90.64 Z" fill="#ddd"/>
<path d="M 384.46 90.64 384.46 89.24 389.44 89.24 389.44 90.64 384.46 90.64 Z" fill="#ddd"/>
<path d="M 389.44 90.64 389.44 89.94 394.42 89.94 394.42 90.64 389.44 90.64 Z" fill="#ddd"/>
<path d="M 404.38 90.64 404.38 89.94 409.36 89.94 409.36 90.64 404.38 90.64 Z" fill="#ddd"/>
<path d="M 409.36 90.64 409.36 89.94 414.34 89.94 414.34 90.64 409.36 90.64 Z" fill="#ddd"/>
<path d="M 414.34 90.64 414.34 89.24 419.32 89.24 419.32 90.64 414.34 90.64 Z" fill="#ddd"/>
<path d="M 429.28 90.64 429.28 89.94 434.26 89.94 434.26 90.64 429.28 90.64 Z" fill="#ddd"/>
<path d="M 434.26 90.64 434.26 89.24 439.24 89.24 439.24 90.64 434.26 90.64 Z" fill="#ddd"/>
<path d="M 444.22 90.64 444.22 89.94 449.2 89.94 449.2 90.64 444.22 90.64 Z" fill="#ddd"/>
<path d="M 479.08 90.64 479.08 89.94 484.06 89.94 484.06 90.64 479.08 90.64 Z" fill="#ddd"/>
<path d="M 489.04 90.64 489.04 89.94 494.02 89.94 494.02 90.64 489.04 90.64 Z" fill="#ddd"/>
<path d="M 494.02 90.64 494.02 89.24 499 89.24 499 90.64 494.02 90.64 Z" fill="#ddd"/>
</g>
<g id="layer24">
<path d="M 1 100.6 1 90.64 50.8 90.64 50.8 100.6 1 100.6 Z" fill="#eff3ff"/>
<path d="M 50.8 100.6 50.8 90.64 100.6 90.64 100.6 100.6 50.8 100.6 Z" fill="#c6dbef"/>
<path d="M 100.6 100.6 100.6 90.64 150.4 90.64 150.4 100.6 100.6 100.6 Z" fill="#9ecae1"/>
<path d="M 150.4 100.6 150.4 90.64 200.2 90.64 200.2 100.6 150.4 100.6 Z" fill="#6baed6"/>
<path d="M 200.2 100.6 200.2 90.64 250 90.64 250 100.6 200.2 100.6 Z" fill="#4292c6"/>
<path d="M 250 100.6 250 90.64 299.8 90.64 299.8 100.6 250 100.6 Z" fill="#2171b5"/>
<path d="M 299.8 100.6 299.8 90.64 499 90.64 499 100.6 299.8 100.6 Z" fill="#084594"/>
<g/>
</g>
<g id="layer25" fill="none" stroke="black" stroke-width="1">
<path d="M 1 90.64 1 106.58" stroke="rgba(0,0,0,0.3)"/>
<path d="M 50.8 90.64 50.8 106.58" stroke="rgba(0,0,0,0.3)"/>
<path d="M 100.6 90.64 100.6 106.58" stroke="rgba(0,0,0,0.3)"/>
<path d="M 150.4 90.64 150.4 106.58" stroke="rgba(0,0,0,0.3)"/>
<path d="M 200.2 90.64 200.2 106.58" stroke="rgba(0,0,0,0.3)"/>
<path d="M 250 90.64 250 106.58" stroke="rgba(0,0,0,0.3)"/>
<path d="M 299.8 90.64 299.8 106.58" stroke="rgba(0,0,0,0.3)"/>
<path d="M 499 90.64 499 106.58" stroke="rgba(0,0,0,0.3)"/>
</g>
<g id="layer26" font-family="sans-serif" font-size="12" text-anchor="middle">
<text y="0" x="0" transform="translate(1 119.6236)" font-family="sans-serif" font-size="13" text-anchor="start" fill="#555">0</text>
<text y="0" x="0" transform="translate(50.8 119.6236)" font-family="sans-serif" font-size="13" text-anchor="middle" fill="#555">10</text>
<text y="0" x="0" transform="translate(100.6 119.6236)" font-family="sans-serif" font-size="13" text-anchor="middle" fill="#555">20</text>
<text y="0" x="0" transform="translate(150.4 119.6236)" font-family="sans-serif" font-size="13" text-anchor="middle" fill="#555">30</text>
<text y="0" x="0" transform="translate(200.2 119.6236)" font-family="sans-serif" font-size="13" text-anchor="middle" fill="#555">40</text>
<text y="0" x="0" transform="translate(250 119.6236)" font-family="sans-serif" font-size="13" text-anchor="middle" fill="#555">50</text>
<text y="0" x="0" transform="translate(299.8 119.6236)" font-family="sans-serif" font-size="13" text-anchor="middle" fill="#555">60</text>
<text y="0" x="0" transform="translate(499 119.6236)" font-family="sans-serif" font-size="13" text-anchor="end" fill="#555">100</text>
</g>
</svg>